# xmcd
#
# Track frame offsets: 
#        150
#        30302
#        42682
#        55775
#        70025
#        77082
#        93705
#        110612
#        130992
#        149015
#        163650
#        182257
#
# Disc length: 2894 seconds
#
# Revision: 0
# Processed by: cddbd v1.5.2PL0 Copyright (c) Steve Scherf et al.
# Submitted via: ExactAudioCopy v1.0b2
#
DISCID=a50b4c0c
DTITLE=Various Artist - Space Battleship Yamato CD-BOX - Yamato New Journey
DYEAR=2004
DGENRE=Soundtrack
TTITLE0=Yamato New Journey
TTITLE1=Wandering Iscandar (Mamoru and Starsha)
TTITLE2=New Cosmo Tiger
TTITLE3=Yamato Meditation
TTITLE4=Tsunpa March
TTITLE5=Desslar - Three Forms (Solitude, Love, Anguish)
TTITLE6=Desslar - Various (Guitar Solo)
TTITLE7=Dark Nebula Empire (Autoplanet Goruba)
TTITLE8=Farewell (Beloved One)
TTITLE9=Great Battle (Goruba, Desslar, Yamato)
TTITLE10=To The Daughter I Love
TTITLE11=At The End (Guitar Solo)
EXTD=YEAR: 1979.9.1
EXTT0=
EXTT1=
EXTT2=
EXTT3=
EXTT4=
EXTT5=
EXTT6=
EXTT7=
EXTT8=
EXTT9=
EXTT10=
EXTT11=
PLAYORDER=
